HIERARCHY
ROOT Hips
{
  OFFSET 52.4665 84.3452 5.34713
  CHANNELS 6 Xposition Yposition Zposition Zrotation Xrotation Yrotation
  JOINT spine
  {
    OFFSET 0 5.95438 0.342407
    CHANNELS 3 Zrotation Xrotation Yrotation
    JOINT spine1
    {
      OFFSET 0 8.85602 0
      CHANNELS 3 Zrotation Xrotation Yrotation
      JOINT spine2
      {
        OFFSET 0 8.48567 0
        CHANNELS 3 Zrotation Xrotation Yrotation
        JOINT Neck
        {
          OFFSET 0 21.7863 1.0387
          CHANNELS 3 Zrotation Xrotation Yrotation
          JOINT Head
          {
            OFFSET 0 6.5822 0
            CHANNELS 3 Zrotation Xrotation Yrotation
            End Site
            {
              OFFSET 0 15.9326 -5.25436
            }
          }
        }
        JOINT RightShoulder
        {
          OFFSET -3.57307 9.16386 -0.497525
          CHANNELS 3 Zrotation Xrotation Yrotation
          JOINT RightArm
          {
            OFFSET 0 12.0192 0
            CHANNELS 3 Zrotation Xrotation Yrotation
            JOINT RightArmRoll
            {
              OFFSET 0 6.06755 0
              CHANNELS 3 Zrotation Xrotation Yrotation
              JOINT RightForeArm
              {
                OFFSET 0 17.6726 0
                CHANNELS 3 Zrotation Xrotation Yrotation
                JOINT RightForeArmRoll
                {
                  OFFSET 0 6.80872 0
                  CHANNELS 3 Zrotation Xrotation Yrotation
                  JOINT RightHand
                  {
                    OFFSET 0 13.6636 0
                    CHANNELS 3 Zrotation Xrotation Yrotation
                    End Site
                    {
                      OFFSET 0 0 0
                    }
                  }
                }
              }
            }
          }
        }
        JOINT LeftShoulder
        {
          OFFSET 3.57307 9.16386 -0.497525
          CHANNELS 3 Zrotation Xrotation Yrotation
          JOINT LeftArm
          {
            OFFSET 0 12.0192 0
            CHANNELS 3 Zrotation Xrotation Yrotation
            JOINT LeftArmRoll
            {
              OFFSET 0 6.06755 0
              CHANNELS 3 Zrotation Xrotation Yrotation
              JOINT LeftForeArm
              {
                OFFSET 0 17.6726 0
                CHANNELS 3 Zrotation Xrotation Yrotation
                JOINT LeftForeArmRoll
                {
                  OFFSET 0 6.80872 0
                  CHANNELS 3 Zrotation Xrotation Yrotation
                  JOINT LeftHand
                  {
                    OFFSET 0 13.6636 0
                    CHANNELS 3 Zrotation Xrotation Yrotation
                    End Site
                    {
                      OFFSET 0 0 0
                    }
                  }
                }
              }
            }
          }
        }
      }
    }
  }
  JOINT RightUpLeg
  {
    OFFSET -5.27774 -0.967797 -0.811858
    CHANNELS 3 Zrotation Xrotation Yrotation
    JOINT RightUpLegRoll
    {
      OFFSET 0 16.0214 0
      CHANNELS 3 Zrotation Xrotation Yrotation
      JOINT RightLeg
      {
        OFFSET 0 -19.8401 0
        CHANNELS 3 Zrotation Xrotation Yrotation
        JOINT RightLegRoll
        {
          OFFSET 0 19.905 0
          CHANNELS 3 Zrotation Xrotation Yrotation
          JOINT RightFoot
          {
            OFFSET 0 16.5675 0
            CHANNELS 3 Zrotation Xrotation Yrotation
            JOINT RightToeBase
            {
              OFFSET 0 13.8496 0
              CHANNELS 3 Zrotation Xrotation Yrotation
              End Site
              {
                OFFSET 0.00587034 6.70727 -0.773117
              }
            }
          }
        }
      }
    }
  }
  JOINT LeftUpLeg
  {
    OFFSET 5.27774 -0.967797 -0.811858
    CHANNELS 3 Zrotation Xrotation Yrotation
    JOINT LeftUpLegRoll
    {
      OFFSET 0 16.0215 0
      CHANNELS 3 Zrotation Xrotation Yrotation
      JOINT LeftLeg
      {
        OFFSET 0 19.84 0
        CHANNELS 3 Zrotation Xrotation Yrotation
        JOINT LeftLegRoll
        {
          OFFSET 0 20.089 0
          CHANNELS 3 Zrotation Xrotation Yrotation
          JOINT LeftFoot
          {
            OFFSET 0 16.3835 0
            CHANNELS 3 Zrotation Xrotation Yrotation
            JOINT LeftToeBase
            {
              OFFSET 0 13.8496 0
              CHANNELS 3 Zrotation Xrotation Yrotation
              End Site
              {
                OFFSET -0.0263083 6.70728 -0.773117
              }
            }
          }
        }
      }
    }
  }
}
MOTION
Frames: 13
Frame Time: 0.00208333
51.8936 84.3919 2.84628 -0.917709 -9.85158 -3.85556 0.354684 -0.259487 0.0687743 0.706259 3.48528 0.0889297 0.706111 5.13028 0.0763628 -4.75789 9.22978 -0.267619 8.16119 5.89322 -1.4868 76.14 0.643674 -1.63994 102.485 16.0733 -3.32773 1.68683e-006 2.7904e-006 1.05217e-005 -3.63787 -0.0270583 -1.99247 2.7024e-006 3.91773e-007 -3.01161 8.03007 -4.95137 0.697632 -69.2288 -2.68645 2.51414 -113.861 17.6922 13.4344 3.52379e-006 1.98495e-006 3.24429e-006 3.64061 -0.0260618 1.99251 -6.91622e-006 -6.92658e-007 3.0116 -8.0301 -4.95138 -0.697629 179.197 -4.2592 3.9357 -180 7.01516e-015 178.797 176.77 7.53703 179.937 2.5591e-006 -2.09025e-006 0.0879649 -18.2564 67.5033 19.1145 8.13649 25.2326 -3.48773 -178.368 -4.08396 -0.979102 4.54188e-006 -4.6773e-006 -1.20878 -2.34106 -11.3387 0.0750584 2.91255e-006 -6.39416e-006 -0.19458 20.1724 69.8438 -21.1719 -8.13649 25.2327 3.48774 
51.9022 84.3912 2.87246 -0.918772 -9.8516 -3.85479 0.353123 -0.259931 0.0687698 0.703358 3.48578 0.0891004 0.703206 5.13079 0.076617 -4.74038 9.25126 -0.27462 8.15593 5.87918 -1.48832 76.158 0.642114 -1.64267 102.45 16.0611 -3.2922 1.68683e-006 2.7904e-006 1.05217e-005 -3.63787 -0.0270583 -1.99247 2.7024e-006 3.91773e-007 -3.01161 8.03007 -4.95137 0.697632 -69.211 -2.67379 2.50621 -113.855 17.6737 13.4227 3.52379e-006 1.98495e-006 3.24429e-006 3.64061 -0.0260618 1.99251 -6.91622e-006 -6.92658e-007 3.0116 -8.0301 -4.95138 -0.697629 179.198 -4.25779 3.93492 -180 7.01516e-015 178.797 176.771 7.54074 179.937 2.5591e-006 -2.09025e-006 0.087961 -18.2569 67.504 19.115 8.13649 25.2326 -3.48773 -178.366 -4.08289 -0.98034 4.54188e-006 -4.6773e-006 -1.20878 -2.34129 -11.3415 0.0750756 2.91255e-006 -6.39416e-006 -0.19458 20.1717 69.8431 -21.1711 -8.13649 25.2327 3.48774 
51.9057 84.3937 2.86566 -0.91997 -9.85104 -3.85368 0.351499 -0.26056 0.0687662 0.700313 3.48601 0.0892832 0.700155 5.13102 0.0768874 -4.72064 9.27373 -0.282315 8.1495 5.8644 -1.48986 76.1783 0.640471 -1.64568 102.413 16.0491 -3.25537 1.68683e-006 2.7904e-006 1.05217e-005 -3.63787 -0.0270583 -1.99247 2.7024e-006 3.91773e-007 -3.01161 8.03007 -4.95137 0.697632 -69.1917 -2.66048 2.49783 -113.851 17.6548 13.4118 3.52379e-006 1.98495e-006 3.24429e-006 3.64061 -0.0260618 1.99251 -6.91622e-006 -6.92658e-007 3.0116 -8.0301 -4.95138 -0.697629 179.2 -4.25608 3.93397 -180 7.01516e-015 178.797 176.773 7.54371 179.937 2.5591e-006 -2.09025e-006 0.0879552 -18.2572 67.5044 19.1153 8.13649 25.2326 -3.48773 -178.365 -4.08077 -0.981668 4.54188e-006 -4.6773e-006 -1.20878 -2.34149 -11.3449 0.0751201 2.91255e-006 -6.39416e-006 -0.19458 20.1708 69.8423 -21.1703 -8.13649 25.2327 3.48774 
51.9063 84.3917 2.84579 -0.921264 -9.85007 -3.85233 0.34983 -0.261317 0.0687631 0.697166 3.48605 0.0894745 0.697003 5.13105 0.0771693 -4.69933 9.29689 -0.290497 8.14226 5.84912 -1.49141 76.2001 0.638769 -1.64889 102.375 16.0372 -3.21763 1.68683e-006 2.7904e-006 1.05217e-005 -3.63787 -0.0270583 -1.99247 2.7024e-006 3.91773e-007 -3.01161 8.03007 -4.95137 0.697632 -69.1713 -2.64673 2.48913 -113.847 17.6356 13.4013 3.52379e-006 1.98495e-006 3.24429e-006 3.64061 -0.0260618 1.99251 -6.91622e-006 -6.92658e-007 3.0116 -8.0301 -4.95138 -0.697629 179.201 -4.25417 3.93287 -180 7.01516e-015 178.797 176.774 7.54615 179.938 2.5591e-006 -2.09025e-006 0.0879481 -18.2574 67.5046 19.1154 8.13649 25.2326 -3.48773 -178.363 -4.07792 -0.983061 4.54188e-006 -4.6773e-006 -1.20878 -2.34165 -11.3488 0.0751836 2.91255e-006 -6.39416e-006 -0.19458 20.1699 69.8414 -21.1693 -8.13649 25.2327 3.48774 
51.9048 84.3908 2.85859 -0.922612 -9.84887 -3.85085 0.348136 -0.262149 0.0687603 0.693961 3.48597 0.0896706 0.693793 5.13098 0.0774577 -4.67712 9.32045 -0.298956 8.13454 5.83355 -1.49298 76.2228 0.637034 -1.65221 102.337 16.0255 -3.17938 1.68683e-006 2.7904e-006 1.05217e-005 -3.63787 -0.0270583 -1.99247 2.7024e-006 3.91773e-007 -3.01161 8.03007 -4.95137 0.697632 -69.1503 -2.63273 2.48025 -113.843 17.6162 13.3911 3.52379e-006 1.98495e-006 3.24429e-006 3.64061 -0.0260618 1.99251 -6.91622e-006 -6.92658e-007 3.0116 -8.0301 -4.95138 -0.697629 179.203 -4.25214 3.93171 -180 7.01516e-015 178.797 176.775 7.54832 179.938 2.5591e-006 -2.09025e-006 0.0879402 -18.2575 67.5047 19.1155 8.13649 25.2326 -3.48773 -178.361 -4.07465 -0.98449 4.54188e-006 -4.6773e-006 -1.20878 -2.3418 -11.353 0.075258 2.91255e-006 -6.39416e-006 -0.19458 20.1689 69.8404 -21.1683 -8.13649 25.2327 3.48774 
51.9069 84.3919 2.84829 -0.923973 -9.84762 -3.84933 0.346435 -0.262998 0.0687576 0.690741 3.48587 0.089868 0.690568 5.13088 0.0777477 -4.65469 9.3441 -0.307487 8.1267 5.8179 -1.49454 76.2457 0.63529 -1.65557 102.298 16.0137 -3.141 1.68683e-006 2.7904e-006 1.05217e-005 -3.63787 -0.0270583 -1.99247 2.7024e-006 3.91773e-007 -3.01161 8.03007 -4.95137 0.697632 -69.1292 -2.61866 2.47132 -113.839 17.5968 13.381 3.52379e-006 1.98495e-006 3.24429e-006 3.64061 -0.0260618 1.99251 -6.91622e-006 -6.92658e-007 3.0116 -8.0301 -4.95138 -0.697629 179.204 -4.25009 3.93052 -180 7.01516e-015 178.797 176.777 7.55043 179.938 2.5591e-006 -2.09025e-006 0.0879322 -18.2576 67.5049 19.1155 8.13649 25.2326 -3.48773 -178.359 -4.07129 -0.985928 4.54188e-006 -4.6773e-006 -1.20878 -2.34194 -11.3572 0.0753351 2.91255e-006 -6.39416e-006 -0.19458 20.1679 69.8394 -21.1673 -8.13649 25.2327 3.48774 
51.9132 84.3934 2.84518 -0.925308 -9.84648 -3.84788 0.344747 -0.263811 0.0687547 0.687551 3.48582 0.0900629 0.687372 5.13083 0.0780344 -4.63269 9.36756 -0.315879 8.1191 5.8024 -1.4961 76.2682 0.633563 -1.65887 102.26 16.0019 -3.10289 1.68683e-006 2.7904e-006 1.05217e-005 -3.63787 -0.0270583 -1.99247 2.7024e-006 3.91773e-007 -3.01161 8.03007 -4.95137 0.697632 -69.1083 -2.60471 2.46249 -113.836 17.5775 13.3707 3.52379e-006 1.98495e-006 3.24429e-006 3.64061 -0.0260618 1.99251 -6.91622e-006 -6.92658e-007 3.0116 -8.0301 -4.95138 -0.697629 179.206 -4.24809 3.92938 -180 7.01516e-015 178.797 176.778 7.55267 179.939 2.5591e-006 -2.09025e-006 0.0879245 -18.2577 67.505 19.1156 8.13649 25.2326 -3.48773 -178.357 -4.06813 -0.987348 4.54188e-006 -4.6773e-006 -1.20878 -2.34209 -11.3612 0.0754068 2.91255e-006 -6.39416e-006 -0.19458 20.167 69.8384 -21.1663 -8.13649 25.2327 3.48774 
51.9105 84.393 2.84322 -0.926574 -9.84563 -3.8466 0.343091 -0.264531 0.0687514 0.684433 3.48591 0.0902518 0.684248 5.13093 0.078313 -4.6118 9.39052 -0.323927 8.11208 5.78726 -1.49765 76.2895 0.631878 -1.66202 102.223 15.99 -3.06543 1.68683e-006 2.7904e-006 1.05217e-005 -3.63787 -0.0270583 -1.99247 2.7024e-006 3.91773e-007 -3.01161 8.03007 -4.95137 0.697632 -69.0882 -2.59109 2.45388 -113.832 17.5584 13.3601 3.52379e-006 1.98495e-006 3.24429e-006 3.64061 -0.0260618 1.99251 -6.91622e-006 -6.92658e-007 3.0116 -8.0301 -4.95138 -0.697629 179.207 -4.24623 3.92832 -180 7.01516e-015 178.797 176.779 7.55528 179.939 2.5591e-006 -2.09025e-006 0.0879178 -18.2579 67.5053 19.1158 8.13649 25.2326 -3.48773 -178.355 -4.06549 -0.988722 4.54188e-006 -4.6773e-006 -1.20878 -2.34226 -11.365 0.0754649 2.91255e-006 -6.39416e-006 -0.19458 20.1661 69.8375 -21.1653 -8.13649 25.2327 3.48774 
51.9106 84.3954 2.8469 -0.927732 -9.84524 -3.84559 0.341485 -0.265105 0.0687475 0.681431 3.48622 0.0904309 0.681241 5.13124 0.0785786 -4.59269 9.4127 -0.33142 8.106 5.77271 -1.49918 76.3091 0.63026 -1.66494 102.186 15.9779 -3.02902 1.68683e-006 2.7904e-006 1.05217e-005 -3.63787 -0.0270583 -1.99247 2.7024e-006 3.91773e-007 -3.01161 8.03007 -4.95137 0.697632 -69.0694 -2.57798 2.44563 -113.827 17.5396 13.349 3.52379e-006 1.98495e-006 3.24429e-006 3.64061 -0.0260618 1.99251 -6.91622e-006 -6.92658e-007 3.0116 -8.0301 -4.95138 -0.697629 179.209 -4.24462 3.92742 -180 7.01516e-015 178.797 176.781 7.55847 179.939 2.5591e-006 -2.09025e-006 0.0879126 -18.2583 67.5058 19.1161 8.13649 25.2326 -3.48773 -178.354 -4.06368 -0.990023 4.54188e-006 -4.6773e-006 -1.20878 -2.34247 -11.3682 0.0755012 2.91255e-006 -6.39416e-006 -0.19458 20.1653 69.8367 -21.1645 -8.13649 25.2327 3.48774 
51.9095 84.3977 2.854 -0.92874 -9.84549 -3.84496 0.33995 -0.265476 0.0687428 0.678588 3.48684 0.0905968 0.678394 5.13185 0.0788263 -4.57602 9.43379 -0.338152 8.1012 5.75896 -1.50069 76.3263 0.628734 -1.66755 102.152 15.9656 -2.99405 1.68683e-006 2.7904e-006 1.05217e-005 -3.63787 -0.0270583 -1.99247 2.7024e-006 3.91773e-007 -3.01161 8.03007 -4.95137 0.697632 -69.0521 -2.56557 2.43789 -113.821 17.5213 13.3371 3.52379e-006 1.98495e-006 3.24429e-006 3.64061 -0.0260618 1.99251 -6.91622e-006 -6.92658e-007 3.0116 -8.0301 -4.95138 -0.697629 179.21 -4.24333 3.92672 -180 7.01516e-015 178.797 176.782 7.56245 179.94 2.5591e-006 -2.09025e-006 0.0879095 -18.2589 67.5065 19.1166 8.13649 25.2326 -3.48773 -178.353 -4.06302 -0.991225 4.54188e-006 -4.6773e-006 -1.20878 -2.34272 -11.3708 0.0755075 2.91255e-006 -6.39416e-006 -0.19458 20.1646 69.8361 -21.1639 -8.13649 25.2327 3.48774 
51.9116 84.3963 2.8493 -0.929558 -9.84655 -3.84479 0.338505 -0.265589 0.0687369 0.675948 3.48783 0.0907457 0.67575 5.13285 0.0790512 -4.56248 9.45349 -0.343914 8.09805 5.74624 -1.50218 76.3403 0.627326 -1.66976 102.12 15.953 -2.96091 1.68683e-006 2.7904e-006 1.05217e-005 -3.63787 -0.0270583 -1.99247 2.7024e-006 3.91773e-007 -3.01161 8.03007 -4.95137 0.697632 -69.037 -2.55406 2.43078 -113.814 17.5035 13.3242 3.52379e-006 1.98495e-006 3.24429e-006 3.64061 -0.0260618 1.99251 -6.91622e-006 -6.92658e-007 3.0116 -8.0301 -4.95138 -0.697629 179.21 -4.24245 3.92629 -180 7.01516e-015 178.797 176.783 7.56745 179.94 2.5591e-006 -2.09025e-006 0.087909 -18.2597 67.5075 19.1175 8.13649 25.2326 -3.48773 -178.352 -4.06381 -0.992299 4.54188e-006 -4.6773e-006 -1.20878 -2.34304 -11.3724 0.0754758 2.91255e-006 -6.39416e-006 -0.19458 20.1641 69.8356 -21.1634 -8.13649 25.2327 3.48774 
51.9114 84.3962 2.85806 -0.930145 -9.8486 -3.84521 0.337167 -0.265389 0.0687297 0.673555 3.4893 0.090874 0.673353 5.13431 0.0792484 -4.55273 9.47153 -0.348497 8.09688 5.73475 -1.50363 76.3506 0.62606 -1.67147 102.09 15.94 -2.92999 1.68683e-006 2.7904e-006 1.05217e-005 -3.63787 -0.0270583 -1.99247 2.7024e-006 3.91773e-007 -3.01161 8.03007 -4.95137 0.697632 -69.0245 -2.54363 2.42444 -113.805 17.4864 13.3102 3.52379e-006 1.98495e-006 3.24429e-006 3.64061 -0.0260618 1.99251 -6.91622e-006 -6.92658e-007 3.0116 -8.0301 -4.95138 -0.697629 179.21 -4.24208 3.92617 -180 7.01516e-015 178.797 176.785 7.57368 179.94 2.5591e-006 -2.09025e-006 0.0879117 -18.2609 67.509 19.1186 8.13649 25.2326 -3.48773 -178.351 -4.06637 -0.993218 4.54188e-006 -4.6773e-006 -1.20878 -2.34343 -11.373 0.0753977 2.91255e-006 -6.39416e-006 -0.19458 20.1639 69.8353 -21.1632 -8.13649 25.2327 3.48774 
51.9121 84.3939 2.85728 -0.930461 -9.8518 -3.84629 0.335957 -0.264822 0.0687208 0.671451 3.49131 0.0909781 0.671246 5.13632 0.0794131 -4.54743 9.48759 -0.351693 8.09805 5.72473 -1.50504 76.3564 0.624963 -1.67261 102.063 15.9265 -2.90168 1.68683e-006 2.7904e-006 1.05217e-005 -3.63787 -0.0270583 -1.99247 2.7024e-006 3.91773e-007 -3.01161 8.03007 -4.95137 0.697632 -69.015 -2.53447 2.419 -113.795 17.47 13.2948 3.52379e-006 1.98495e-006 3.24429e-006 3.64061 -0.0260618 1.99251 -6.91622e-006 -6.92658e-007 3.0116 -8.0301 -4.95138 -0.697629 179.209 -4.2423 3.92643 -180 7.01516e-015 178.797 176.786 7.58137 179.94 2.5591e-006 -2.09025e-006 0.0879183 -18.2624 67.5109 19.1201 8.13649 25.2326 -3.48773 -178.352 -4.07101 -0.993955 4.54188e-006 -4.6773e-006 -1.20878 -2.34391 -11.3723 0.0752652 2.91255e-006 -6.39416e-006 -0.19458 20.1639 69.8353 -21.1632 -8.13649 25.2327 3.48774 
